ply
format ascii 1.0
comment Created by Blender 2.79 (sub 0) - www.blender.org, source file: ''
element vertex 33
property float x
property float y
property float z
property float nx
property float ny
property float nz
property float s
property float t
element face 40
property list uchar uint vertex_indices
end_header
-116.724197 28.484491 209.467102 -0.220771 0.921659 0.318979 0.263400 0.725500
-91.402397 20.648390 218.603607 0.019807 0.547014 0.836879 0.250900 0.739800
-92.078300 28.338591 209.248001 0.008606 0.939268 0.343028 0.263400 0.739800
-115.651398 20.794291 219.179901 -0.145878 0.553026 0.820246 0.250900 0.725500
-121.802902 19.216091 217.641998 -0.343638 0.513321 0.786370 0.250900 0.668200
-90.080902 -3.478608 188.349396 0.037599 -0.566393 -0.823267 0.313400 0.739800
-89.305801 -10.930709 197.705002 0.042756 -0.945769 -0.321970 0.325900 0.739800
-112.702698 -4.146008 187.774597 -0.104465 -0.569597 -0.815210 0.313400 0.725500
-111.471100 -11.856109 197.477493 -0.108921 -0.941832 -0.317911 0.325900 0.725500
-121.801201 -2.321608 189.313004 -0.243782 -0.546525 -0.801141 0.313400 0.668200
-121.810097 -8.980008 198.073395 -0.270302 -0.911039 -0.311319 0.325900 0.668200
-121.802597 8.443992 185.970398 -0.245094 -0.003754 -0.969481 0.300900 0.668200
-114.450600 8.325993 184.065094 -0.114902 -0.010102 -0.993316 0.300900 0.725500
-121.803802 19.218792 189.315094 -0.334758 0.514298 -0.789544 0.288400 0.668200
-116.019600 20.787292 187.767197 -0.168798 0.550279 -0.817713 0.288400 0.725500
-121.794403 25.865591 198.066803 -0.460891 0.830805 -0.311899 0.275900 0.668200
-116.853600 28.485590 197.481506 -0.232307 0.917295 -0.323344 0.275900 0.725500
-121.793999 25.864590 208.881699 -0.466659 0.834284 0.293497 0.263400 0.668200
-89.136703 -10.892110 209.254105 0.042482 -0.942808 0.330546 0.338400 0.739800
-89.633400 -3.421910 218.601196 0.037568 -0.564074 0.824824 0.350900 0.739800
-112.304802 -4.089409 219.177399 -0.096896 -0.570208 0.815729 0.350900 0.725500
-90.517799 8.612890 222.174301 0.030152 -0.008698 0.999481 0.363400 0.739800
-113.973000 8.342091 222.889404 -0.099338 -0.011780 0.994964 0.363400 0.725500
-115.651398 20.794291 219.179901 -0.145878 0.553026 0.820246 0.375900 0.725500
-121.801498 8.470390 220.984695 -0.248604 -0.012452 0.968505 0.363400 0.668200
-121.802902 19.216091 217.641998 -0.343638 0.513321 0.786370 0.375900 0.668200
-91.830002 20.641293 188.351807 0.019990 0.548936 -0.835597 0.288400 0.739800
-91.054802 8.586693 184.778702 0.030274 -0.008209 -0.999481 0.300900 0.739800
-92.237396 28.339691 197.699005 0.008545 0.940947 -0.338359 0.275900 0.739800
-121.800301 -2.274709 217.639999 -0.239540 -0.551317 0.799127 0.350900 0.668200
-121.809700 -8.941409 208.878296 -0.266366 -0.910367 0.316568 0.338400 0.668200
-111.321899 -11.807610 209.473007 -0.106662 -0.940306 0.323130 0.338400 0.725500
-91.402397 20.648390 218.603607 0.019807 0.547014 0.836879 0.375900 0.739800
3 0 1 2
3 1 0 3
3 4 3 0
3 5 6 7
3 8 7 6
3 7 8 9
3 10 9 8
3 11 7 9
3 7 11 12
3 13 12 11
3 12 13 14
3 15 14 13
3 14 15 16
3 17 16 15
3 16 17 0
3 4 0 17
3 18 19 20
3 21 20 19
3 20 21 22
3 23 22 21
3 22 23 24
3 25 24 23
3 26 27 14
3 12 14 27
3 28 26 16
3 14 16 26
3 29 22 24
3 22 29 20
3 30 20 29
3 20 30 31
3 10 31 30
3 31 10 8
3 2 28 0
3 16 0 28
3 31 18 20
3 18 31 8
3 7 27 5
3 27 7 12
3 8 6 18
3 21 32 23
