ply
format ascii 1.0
comment Created by Blender 2.79 (sub 0) - www.blender.org, source file: ''
element vertex 224
property float x
property float y
property float z
property float nx
property float ny
property float nz
property float s
property float t
element face 338
property list uchar uint vertex_indices
end_header
14.559555 3.645512 19.574549 0.512558 0.853359 0.094882 0.784000 0.160900
7.390152 -3.658164 10.274697 -0.230140 0.325724 -0.917020 0.882500 0.204800
10.085953 4.037971 17.660215 -0.126072 0.978027 -0.165929 0.880200 0.168500
18.958954 -5.185255 10.122446 -0.088198 0.108005 -0.990204 0.783900 0.206100
14.340851 1.285783 19.915094 0.053377 -0.742576 -0.667623 0.663300 0.158000
24.218155 -3.374455 9.478445 0.080111 -0.147862 -0.985748 0.663000 0.207000
12.951660 4.290273 20.819487 -0.276864 -0.956725 0.089236 0.555500 0.170700
7.202957 9.481606 11.368670 0.101108 -0.942503 -0.318491 0.558400 0.213700
6.093155 -4.906408 23.022671 0.639699 -0.712272 0.288797 0.488300 0.174200
-9.877350 -5.301606 -1.843900 0.658254 -0.751244 -0.047639 0.371300 0.307300
-19.820343 -13.182069 -1.540709 0.466414 -0.857418 -0.217322 0.298300 0.307300
-8.963745 -10.899623 -22.575340 0.360118 -0.843928 -0.397595 0.399700 0.432400
-21.299347 -14.098694 -18.614166 -0.112125 -0.877255 -0.466720 0.284900 0.407600
-23.277344 -1.571350 -26.830908 -0.436018 -0.288766 -0.852321 0.266800 0.452900
-27.314453 -13.898646 -14.037885 0.323893 -0.840938 -0.433454 0.218200 0.380700
-27.039551 -1.214324 -23.560329 0.149937 -0.313273 -0.937742 0.220600 0.433700
-29.972946 -16.765930 -15.763941 0.418104 -0.797693 -0.434523 0.196900 0.391500
-29.966850 -8.158700 -24.680065 0.474258 -0.495621 -0.727592 0.196900 0.441800
-37.513649 -16.764797 -15.768188 -0.588610 -0.710868 -0.384930 0.138100 0.391500
-37.507446 -8.157568 -24.684313 -0.600024 -0.438459 -0.669088 0.138100 0.441800
-39.475044 -12.974703 -2.413545 -0.987365 -0.158269 0.002167 0.120400 0.312300
-39.461349 6.998172 -22.071690 -0.986633 0.020661 -0.161596 0.120400 0.423000
-39.483246 8.564316 17.922560 -0.987060 0.032685 0.156926 0.120400 0.188100
-29.962746 3.900551 -28.866024 0.477035 -0.010712 -0.878811 0.157500 0.952900
-27.039551 -1.214324 -23.560329 0.149937 -0.313273 -0.937742 0.180800 0.924400
-29.966850 -8.158700 -24.680065 0.474258 -0.495621 -0.727592 0.175000 0.985900
-27.306641 18.755148 -19.725323 0.081088 0.707633 -0.701895 0.178400 0.898500
-29.962845 16.260191 -25.636351 0.468276 0.391308 -0.792169 0.157500 0.932100
-29.966049 25.538345 -17.420609 0.457106 0.760704 -0.460829 0.157500 0.884200
-37.503448 16.261219 -25.640493 -0.582659 0.397382 -0.708884 0.099700 0.932100
-37.506645 25.539371 -17.424850 -0.584063 0.680044 -0.443098 0.099700 0.884200
-39.469147 24.168636 -3.500714 -0.980041 0.198523 -0.009766 0.082300 0.806600
-37.513748 29.353502 -3.702663 -0.532853 0.845515 -0.033326 0.099700 0.806600
-37.521843 26.623762 10.265726 -0.587451 0.726493 0.356426 0.099700 0.729000
-29.981247 26.622717 10.269871 0.509995 0.787896 0.345073 0.157500 0.729000
-29.988243 18.077208 20.762388 0.480056 0.501328 0.719840 0.158100 0.678200
-27.324753 19.257463 13.131539 0.109958 0.840266 0.530839 0.178400 0.714700
-27.331146 5.863976 21.281857 -0.100772 -0.027558 0.994507 0.178400 0.672000
-24.684647 7.767116 26.531033 -0.651540 0.138188 0.745903 0.227800 0.639900
-24.287445 -11.297552 20.952768 -0.769707 -0.432020 0.469924 0.215100 0.602300
-16.878754 -16.112383 25.067476 -0.551073 -0.517136 0.654866 0.290500 0.581800
-13.542953 -21.473257 20.036514 -0.397992 -0.916074 -0.048952 0.275100 0.566100
-3.375748 -27.954647 23.185385 -0.409131 -0.907804 0.091983 0.361100 0.536800
-8.324249 13.806219 29.441177 -0.194739 0.275552 0.941343 0.348800 0.631500
-0.984848 4.759727 32.242069 0.208838 0.090487 0.973724 0.377100 0.621000
7.788254 13.466480 30.466187 0.093509 0.016022 0.995483 0.466000 0.617500
-2.108841 27.978703 25.235518 -0.184973 0.757866 0.625599 0.357700 0.652300
-23.002441 20.989470 20.106087 -0.573748 0.581805 0.576434 0.228900 0.675200
4.208847 31.832422 12.864875 -0.046449 0.980163 0.192511 0.373000 0.713500
-21.022949 27.094667 12.470661 -0.470443 0.840480 0.268685 0.246400 0.716600
5.001953 33.812008 -3.268145 0.015961 0.998688 -0.048036 0.379600 0.803300
-20.865341 27.506222 -3.134700 -0.278603 0.960387 0.001587 0.247700 0.803900
4.712448 31.007158 -18.857048 0.053499 0.922361 -0.382519 0.377100 0.891100
-21.651642 25.107124 -17.240381 -0.395184 0.855770 -0.333842 0.237700 0.878000
-0.609650 21.319801 -31.964771 -0.083834 0.503983 -0.859615 0.363400 0.959200
-23.185150 19.157362 -26.679455 -0.524491 0.431013 -0.734214 0.219200 0.933100
-23.277344 -1.571350 -26.830908 -0.436018 -0.288766 -0.852321 0.226200 0.942700
26.639648 -3.799062 -27.471046 0.723655 -0.354472 -0.592120 0.590500 0.971400
13.622955 -9.450058 -30.344881 -0.051393 -0.355235 -0.933348 0.679100 0.982100
16.860153 -1.306572 -33.084862 -0.029511 -0.210547 -0.977111 0.590400 0.984900
13.322449 -15.133112 -26.627365 0.015595 -0.869167 -0.494247 0.679300 0.969500
14.776260 -16.516453 -18.589100 0.108921 -0.896176 0.430067 0.679300 0.927600
0.360855 -7.840008 -18.192055 -0.659597 -0.468490 0.587664 0.764700 0.927900
4.101059 -2.152086 -16.188522 -0.057161 0.347240 0.936003 0.764500 0.914800
-1.066254 -0.286859 -19.292906 -0.764183 0.422254 0.487533 0.802600 0.930100
3.678955 3.813854 -22.826866 -0.167821 0.985748 0.009247 0.859200 0.942700
-1.569153 -1.069148 -25.071327 -0.851772 0.336375 -0.401593 0.802200 0.957300
3.165451 -3.411248 -29.077866 -0.269356 0.177313 -0.946562 0.764600 0.975600
-0.280151 -8.808460 -25.681025 -0.729759 -0.567400 -0.381390 0.764700 0.964400
33.380356 -3.166713 -16.112955 0.712943 -0.316080 -0.625904 0.616400 0.882300
18.092453 -4.040897 -19.482967 -0.180822 -0.064089 -0.981414 0.753100 0.896700
16.012650 19.241304 -20.316399 -0.965270 -0.083773 0.247414 0.616200 0.897600
21.908356 -15.087644 -15.036743 0.267098 -0.777154 -0.569750 0.754600 0.880400
22.765854 -16.584486 -5.077904 0.323374 -0.828730 0.456679 0.754800 0.826700
7.525955 -14.826432 -4.877109 -0.379589 -0.780725 0.496292 0.849400 0.830000
8.041046 -6.773506 -1.319687 -0.214484 0.231422 0.948882 0.848100 0.811300
0.046753 -6.477145 -6.211038 -0.860286 -0.107120 0.498367 0.890000 0.834600
0.734360 0.074532 -9.803581 -0.565050 0.825037 -0.003540 0.980200 0.855800
0.090256 -6.752989 -13.001947 -0.860103 -0.153233 -0.486496 0.889700 0.866500
8.109756 -6.126049 -17.748560 -0.224097 0.259224 -0.939451 0.847800 0.891500
7.570755 -15.151834 -14.198007 -0.366070 -0.796381 -0.481368 0.849100 0.876100
-0.984848 4.759727 32.242069 0.208838 0.090487 0.973724 0.529700 0.140700
0.280350 -9.451750 19.255508 0.966399 0.062807 0.249123 0.510100 0.135600
7.788254 13.466480 30.466187 0.093509 0.016022 0.995483 0.572900 0.127000
21.052246 -0.835068 29.683086 -0.105441 -0.185156 0.977020 0.662300 0.111900
18.859558 -3.239550 28.872501 -0.157140 0.049074 0.986328 0.784100 0.111100
7.439453 -5.713966 28.268097 -0.320200 0.166997 0.932493 0.882600 0.116000
3.119553 -0.535125 18.758923 -0.675375 0.734733 0.063173 0.920700 0.161700
-8.946152 3.202333 -32.918106 -0.062044 -0.235359 -0.969909 0.356800 0.978000
16.455551 20.682098 -31.443947 0.322092 0.584887 -0.744377 0.481800 0.963800
22.512451 24.146963 -20.782976 0.569109 0.682455 -0.458602 0.504900 0.903400
25.748749 6.464876 -28.568550 0.727653 0.140141 -0.671438 0.565600 0.969700
29.474350 6.599216 -19.545839 0.873623 0.207434 0.440138 0.571100 0.922700
29.660950 -4.607699 -18.947994 0.837916 -0.352275 0.416822 0.590600 0.928400
13.654846 -7.268239 -15.704932 -0.035432 0.000946 0.999359 0.679100 0.911700
5.993256 6.583452 -26.637804 -0.080782 -0.814295 -0.574786 0.551400 0.449000
9.044159 5.640915 -17.732145 0.434706 -0.811670 0.390088 0.558700 0.396400
18.210648 0.616332 -16.686398 -0.092563 0.078494 0.992584 0.637100 0.404400
8.521347 0.597323 -24.565035 -0.835994 -0.507096 0.209601 0.637100 0.449600
13.654846 -7.268239 -15.704932 -0.035432 0.000946 0.999359 0.727800 0.407300
11.656754 0.925441 -24.794584 0.927122 0.310129 -0.210303 0.727700 0.446600
4.101059 -2.152086 -16.188522 -0.057161 0.347240 0.936003 0.807700 0.409600
7.598755 3.441685 -24.200315 0.301645 0.938749 -0.166417 0.807700 0.444300
3.678955 3.813854 -22.826866 -0.167821 0.985748 0.009247 0.833700 0.439400
3.165451 -3.411248 -29.077866 -0.269356 0.177313 -0.946562 0.807700 0.473300
28.006256 2.644667 14.864949 0.083956 -0.046937 0.995361 0.622600 0.725100
24.062546 30.707222 12.611998 0.483566 0.851131 0.204260 0.516200 0.719600
7.202957 9.481606 11.368670 0.101108 -0.942503 -0.318491 0.617100 0.720600
35.600647 13.866227 10.110282 0.834468 0.310251 0.455336 0.601400 0.730600
38.267548 -2.902670 9.666317 0.856777 -0.313791 0.409192 0.631100 0.734400
34.575653 13.507931 -2.337708 0.781823 0.223792 -0.581927 0.599600 0.795700
36.536957 -3.062276 -0.754372 0.746910 -0.341014 -0.570788 0.629800 0.792700
27.967056 2.426213 -4.151468 0.042085 -0.119510 -0.991913 0.628300 0.797500
19.914749 -18.928917 0.711779 0.172155 -0.867397 -0.466811 0.778300 0.789600
17.735947 -8.679545 -4.059745 -0.023652 -0.099612 -0.994720 0.779100 0.800800
4.996857 -2.264065 -3.325004 -0.207709 0.290628 -0.933988 0.881500 0.805800
21.052246 -0.835068 29.683086 -0.105441 -0.185156 0.977020 0.612700 0.626400
15.620056 25.072971 27.176138 0.232246 0.589190 0.773858 0.482500 0.647300
28.745255 12.490327 26.673119 0.583392 0.289956 0.758629 0.574500 0.651700
32.245850 -2.096372 26.173941 0.691000 -0.210517 0.691488 0.612700 0.653600
34.199554 15.001019 14.235521 0.872738 0.338450 -0.351726 0.579600 0.708000
36.994659 -0.940328 15.397451 0.936277 -0.194586 -0.292428 0.613400 0.701800
24.218155 -3.374455 9.478445 0.080111 -0.147862 -0.985748 0.619900 0.715600
24.501160 -15.329739 15.050605 0.376965 -0.827784 -0.415509 0.733200 0.697800
18.958954 -5.185255 10.122446 -0.088198 0.108005 -0.990204 0.732700 0.716700
7.390152 -3.658164 10.274697 -0.230140 0.325724 -0.917020 0.829600 0.713500
14.585358 -17.737234 3.482177 0.693808 0.411451 -0.590991 0.583400 0.549000
7.383148 -22.202375 0.237386 -0.126774 -0.059145 -0.990143 0.616500 0.508500
5.259750 -14.895330 2.482056 -0.362468 0.601886 -0.711539 0.597600 0.563500
13.968658 -26.718782 3.853496 0.741111 -0.447951 -0.500046 0.564400 0.518900
16.475861 -16.719168 11.992689 0.907285 0.419996 -0.019990 0.512600 0.566800
13.396561 -27.381231 15.585990 0.754662 -0.608905 0.244270 0.483700 0.531500
11.107254 -12.414867 32.633335 0.702322 0.238441 0.670705 0.416600 0.589700
3.555252 -23.344685 32.411869 0.075411 -0.484970 0.871242 0.384400 0.547300
-27.329346 -8.899056 14.234178 0.001648 -0.792871 0.609363 0.218200 0.213800
-20.253540 -19.220369 8.823582 -0.237037 -0.963530 -0.123966 0.294400 0.247900
-24.287445 -11.297552 20.952768 -0.769707 -0.432020 0.469924 0.257900 0.174900
-27.321548 -16.263510 -1.910699 0.506394 -0.861751 -0.030610 0.218200 0.310200
-29.988144 -15.681556 11.926635 0.465102 -0.772668 0.431959 0.196900 0.228800
-29.981049 -19.495190 -1.785565 0.404553 -0.913785 0.036103 0.196900 0.310200
-37.528748 -15.680423 11.922387 -0.598468 -0.689749 0.407483 0.138100 0.228800
-37.521744 -19.494162 -1.789808 -0.558794 -0.828608 0.033296 0.138100 0.310200
3.659256 -11.566586 8.874485 -0.358715 0.841578 -0.403760 0.538300 0.588100
0.280350 -9.451750 19.255508 0.966399 0.062807 0.249123 0.448400 0.606300
-8.557739 -5.352985 34.123379 -0.219001 -0.140446 0.965545 0.351100 0.612400
17.735352 -8.012463 15.256829 -0.040864 -0.029633 0.998718 0.777400 0.720800
19.929260 -18.597672 10.439659 0.169683 -0.849849 0.498917 0.778300 0.738900
4.927750 -1.851963 14.045323 -0.208289 0.346171 0.914731 0.881700 0.720000
2.497253 -12.433177 10.576020 -0.520676 -0.653890 0.548906 0.884300 0.739000
-2.541351 -4.967967 9.496409 -0.897275 -0.016999 0.441084 0.933000 0.752600
-2.417740 -5.040002 1.317411 -0.890713 -0.025880 -0.453780 0.932600 0.773700
1.044052 3.362486 5.190460 -0.629841 0.776605 -0.010346 0.980700 0.766100
18.859558 -3.239550 28.872501 -0.157140 0.049074 0.986328 0.732800 0.626200
24.258148 -13.859456 24.197491 0.368267 -0.738884 0.564257 0.733100 0.655200
7.439453 -5.713966 28.268097 -0.320200 0.166997 0.932493 0.829700 0.628800
4.672760 -15.561281 23.002253 -0.393048 -0.806665 0.441328 0.829300 0.657600
-0.644043 -8.664202 22.371803 -0.906247 -0.073122 0.416303 0.878800 0.661300
-0.719040 -7.803575 14.682460 -0.897946 0.010773 -0.439894 0.881000 0.691700
3.119553 -0.535125 18.758923 -0.675375 0.734733 0.063173 0.963000 0.676500
18.337860 1.744746 4.776740 -0.354869 0.038514 0.934111 0.681300 0.257300
28.006256 2.644667 14.864949 0.083956 -0.046937 0.995361 0.679900 0.212900
17.735352 -8.012463 15.256829 -0.040864 -0.029633 0.998718 0.827900 0.214200
15.400955 2.840258 5.099626 0.263619 0.963073 0.054506 0.828000 0.258500
4.927750 -1.851963 14.045323 -0.208289 0.346171 0.914731 0.933900 0.211100
7.672546 6.279464 4.652866 0.046785 0.996643 -0.067080 0.925700 0.258100
1.044052 3.362486 5.190460 -0.629841 0.776605 -0.010346 0.971100 0.255900
4.996857 -2.264065 -3.325004 -0.207709 0.290628 -0.933988 0.933800 0.301000
-39.483246 8.564316 17.922560 -0.987060 0.032685 0.156926 0.082300 0.690100
-39.461349 6.998172 -22.071690 -0.986633 0.020661 -0.161596 0.082300 0.914200
-37.528847 18.078253 20.758242 -0.576525 0.480819 0.660573 0.100300 0.678200
-37.532845 6.009102 24.944485 -0.557146 0.023988 0.830042 0.099700 0.651400
-29.992249 6.008077 24.948729 0.437117 0.016694 0.899228 0.157500 0.651400
-29.992249 -6.341667 21.718672 0.501450 -0.416150 0.758476 0.143100 0.601100
-27.329346 -8.899056 14.234178 0.001648 -0.792871 0.609363 0.174800 0.622500
25.243256 29.456490 -5.628534 0.559893 0.810297 -0.172857 0.514200 0.804100
35.954346 -2.031386 -5.620805 0.847285 -0.255257 0.465743 0.616500 0.823600
18.205353 20.282879 -2.075823 0.056307 0.076754 0.995453 0.624000 0.807900
19.193649 -3.115354 -1.168920 -0.113712 0.041444 0.992645 0.753500 0.806400
35.569458 11.115947 -5.857836 0.859004 0.232093 0.456313 0.593600 0.819200
32.579254 9.804488 -17.554638 0.678396 0.128025 -0.723441 0.587600 0.887800
2.492859 -12.761987 0.659403 -0.531114 -0.678487 -0.507462 0.884300 0.788300
-27.314545 26.120007 -3.570451 0.347728 0.935118 0.067660 0.178400 0.806600
7.438858 10.051167 -2.485316 0.425001 -0.893185 -0.146733 0.553100 0.309000
27.967056 2.426213 -4.151468 0.042085 -0.119510 -0.991913 0.678100 0.301300
17.735947 -8.679545 -4.059745 -0.023652 -0.099612 -0.994720 0.827600 0.303200
4.440247 -14.777313 13.101614 -0.383953 -0.705863 -0.595233 0.829200 0.697700
-37.507446 -8.157568 -24.684313 -0.600024 -0.438459 -0.669088 0.091700 0.985900
-37.503448 3.901687 -28.870171 -0.556230 -0.040986 -0.829981 0.099700 0.952900
11.531448 12.626995 -10.477880 0.083071 -0.927763 0.363720 0.665000 0.348500
18.205353 20.282879 -2.075823 0.056307 0.076754 0.995453 0.663800 0.306600
19.193649 -3.115354 -1.168920 -0.113712 0.041444 0.992645 0.803500 0.309900
12.561447 -1.021424 -10.608116 0.829859 0.554796 -0.059084 0.897500 0.354600
8.109756 -6.126049 -17.748560 -0.224097 0.259224 -0.939451 0.899500 0.393900
0.734360 0.074532 -9.803581 -0.565050 0.825037 -0.003540 0.940700 0.350800
11.052750 -3.986099 -10.254505 0.845027 0.533128 0.040803 0.802100 0.353600
8.041046 -6.773506 -1.319687 -0.214484 0.231422 0.948882 0.899800 0.310000
-13.542953 -21.473257 20.036514 -0.397992 -0.916074 -0.048952 0.334200 0.111100
-1.949051 -14.285295 12.453263 0.677602 -0.249184 -0.691885 0.406900 0.175800
-8.946152 3.202333 -32.918106 -0.062044 -0.235359 -0.969909 0.399700 0.489800
6.703354 15.269114 -34.563633 -0.547533 0.503525 -0.668264 0.520300 0.493000
16.860153 -1.306572 -33.084862 -0.029511 -0.210547 -0.977111 0.637500 0.485600
-3.375748 -27.954647 23.185385 -0.409131 -0.907804 0.091983 0.409100 0.071500
-1.951248 -21.414526 14.738206 -0.861232 -0.146519 -0.486587 0.466500 0.109500
3.659256 -11.566586 8.874485 -0.358715 0.841578 -0.403760 0.607100 0.100700
6.703354 15.269114 -34.563633 -0.547533 0.503525 -0.668264 0.475300 0.981000
2.360153 -23.951662 4.483423 -0.876949 -0.237403 -0.417798 0.612900 0.027800
5.259750 -14.895330 2.482056 -0.362468 0.601886 -0.711539 0.672400 0.062300
7.383148 -22.202375 0.237386 -0.126774 -0.059145 -0.990143 0.663300 0.009700
1.145950 -23.066172 11.368965 -0.839900 -0.359478 -0.406568 0.553300 0.065100
7.492355 -30.103138 16.036823 -0.021516 -0.993164 0.114719 0.506200 0.031600
-29.973045 29.352470 -3.698519 0.421003 0.906949 -0.012879 0.157500 0.806600
7.492355 -30.103138 16.036823 -0.021516 -0.993164 0.114719 0.471600 0.513700
8.054550 -31.203043 3.926566 -0.116703 -0.883694 -0.453261 0.559600 0.501000
18.210648 0.616332 -16.686398 -0.092563 0.078494 0.992584 0.590000 0.913300
9.044159 5.640915 -17.732145 0.434706 -0.811670 0.390088 0.587000 0.905300
9.315750 21.643345 -2.362317 -0.904599 0.421216 0.065157 0.618700 0.803700
-37.532845 -6.340530 21.714521 -0.597552 -0.416272 0.685263 0.098000 0.613200
-29.992249 -6.341667 21.718672 0.501450 -0.416150 0.758476 0.196900 0.169300
-37.532845 -6.340530 21.714521 -0.597552 -0.416272 0.685263 0.138100 0.169300
13.622955 -9.450058 -30.344881 -0.051393 -0.355235 -0.933348 0.727800 0.481100
8.054550 -31.203043 3.926566 -0.116703 -0.883694 -0.453261 0.587800 0.002500
16.012650 19.241304 -20.316399 -0.965270 -0.083773 0.247414 0.663800 0.399400
18.092453 -4.040897 -19.482967 -0.180822 -0.064089 -0.981414 0.803000 0.400500
9.315750 21.643345 -2.362317 -0.904599 0.421216 0.065157 0.617100 0.303700
3 0 1 2
3 1 0 3
3 4 3 0
3 3 4 5
3 6 5 4
3 5 6 7
3 8 7 6
3 7 8 9
3 10 9 8
3 9 10 11
3 12 11 10
3 11 12 13
3 14 13 12
3 13 14 15
3 16 15 14
3 15 16 17
3 18 17 16
3 17 18 19
3 20 19 18
3 19 20 21
3 22 21 20
3 23 24 25
3 24 23 26
3 27 26 23
3 26 27 28
3 29 28 27
3 28 29 30
3 31 30 29
3 30 31 32
3 33 32 31
3 32 33 34
3 35 34 33
3 34 35 36
3 37 36 35
3 36 37 38
3 39 38 37
3 38 39 40
3 41 40 39
3 40 41 42
3 43 44 45
3 44 43 38
3 46 38 43
3 38 46 47
3 48 47 46
3 47 48 49
3 50 49 48
3 49 50 51
3 52 51 50
3 51 52 53
3 54 53 52
3 53 54 55
3 56 55 54
3 55 56 24
3 57 58 59
3 58 57 60
3 61 60 57
3 60 61 62
3 63 62 61
3 62 63 64
3 65 64 63
3 64 65 66
3 67 66 65
3 66 67 68
3 60 68 67
3 68 60 62
3 69 70 71
3 70 69 72
3 73 72 69
3 72 73 74
3 75 74 73
3 74 75 76
3 77 76 75
3 76 77 78
3 79 78 77
3 78 79 80
3 72 80 79
3 80 72 74
3 8 81 82
3 81 8 83
3 6 83 8
3 83 6 84
3 4 84 6
3 84 4 85
3 0 85 4
3 85 0 86
3 2 86 0
3 86 2 87
3 1 87 2
3 54 88 56
3 88 54 89
3 90 89 54
3 89 90 91
3 92 91 90
3 91 92 57
3 93 57 92
3 57 93 61
3 94 61 93
3 61 94 63
3 95 96 11
3 96 95 97
3 98 97 95
3 97 98 99
3 100 99 98
3 99 100 101
3 102 101 100
3 101 102 103
3 104 103 102
3 105 106 107
3 106 105 108
3 109 108 105
3 108 109 110
3 111 110 109
3 110 111 112
3 113 112 111
3 112 113 114
3 115 114 113
3 116 117 45
3 117 116 118
3 119 118 116
3 118 119 120
3 121 120 119
3 120 121 122
3 123 122 121
3 122 123 124
3 125 124 123
3 126 127 128
3 127 126 129
3 130 129 126
3 129 130 131
3 132 131 130
3 131 132 133
3 40 133 132
3 133 40 42
3 134 135 136
3 135 134 137
3 138 137 134
3 137 138 139
3 140 139 138
3 139 140 141
3 20 141 140
3 141 20 18
3 142 126 128
3 126 142 130
3 143 130 142
3 130 143 132
3 44 132 143
3 132 44 144
3 38 144 44
3 144 38 40
3 145 109 105
3 109 145 146
3 147 146 145
3 146 147 148
3 149 148 147
3 148 149 150
3 151 150 149
3 150 151 115
3 152 119 116
3 119 152 153
3 154 153 152
3 153 154 155
3 156 155 154
3 155 156 157
3 158 157 156
3 157 158 125
3 159 160 7
3 160 159 161
3 162 161 159
3 161 162 163
3 164 163 162
3 163 164 165
3 166 165 164
3 167 31 168
3 31 167 169
3 170 169 167
3 169 170 171
3 172 171 170
3 171 172 173
3 48 174 50
3 174 48 106
3 46 106 48
3 106 46 117
3 43 117 46
3 117 43 45
3 37 173 39
3 173 37 171
3 35 171 37
3 171 35 169
3 33 169 35
3 169 33 31
3 175 176 177
3 176 175 178
3 179 178 175
3 178 179 174
3 90 174 179
3 174 90 50
3 179 71 90
3 71 179 69
3 175 69 179
3 69 175 73
3 177 73 175
3 73 177 75
3 146 111 109
3 111 146 113
3 148 113 146
3 113 148 180
3 150 180 148
3 180 150 115
3 51 36 49
3 36 51 181
3 53 181 51
3 181 53 26
3 55 26 53
3 26 55 24
3 182 7 9
3 7 182 159
3 183 159 182
3 159 183 162
3 184 162 183
3 162 184 166
3 153 121 119
3 121 153 123
3 155 123 153
3 123 155 185
3 157 185 155
3 185 157 125
3 186 23 25
3 23 186 187
3 168 187 186
3 187 168 29
3 31 29 168
3 96 9 11
3 9 96 182
3 188 182 96
3 182 188 189
3 190 189 188
3 191 192 193
3 192 191 194
3 195 194 191
3 194 195 190
3 135 196 136
3 196 135 197
3 10 197 135
3 197 10 8
3 198 11 13
3 11 198 95
3 199 95 198
3 95 199 200
3 197 201 196
3 201 197 202
3 82 202 197
3 202 82 203
3 89 204 88
3 204 89 59
3 91 59 89
3 59 91 57
3 205 206 207
3 206 205 208
3 209 208 205
3 208 209 201
3 28 181 26
3 181 28 210
3 30 210 28
3 210 30 32
3 139 14 137
3 14 139 16
3 141 16 139
3 16 141 18
3 211 133 42
3 133 211 131
3 212 131 211
3 90 213 92
3 213 90 214
3 71 214 90
3 174 176 178
3 176 174 215
3 112 215 174
3 137 10 135
3 10 137 12
3 14 12 137
3 216 170 167
3 170 216 172
3 27 187 29
3 187 27 23
3 217 138 134
3 138 217 218
3 218 140 138
3 140 218 22
3 174 110 112
3 110 174 106
3 219 100 98
3 100 219 104
3 47 36 38
3 36 47 49
3 52 90 54
3 90 52 50
3 34 210 32
3 210 34 36
3 200 98 95
3 98 200 219
3 129 212 127
3 212 129 131
3 220 205 207
3 205 220 209
3 202 208 201
3 208 202 203
3 221 188 96
3 188 221 222
3 66 62 64
3 62 66 68
3 188 194 190
3 194 188 222
3 93 213 94
3 213 93 92
3 78 74 76
3 74 78 80
3 223 182 189
3 182 223 183
3 118 106 117
3 106 118 120
3 122 106 120
3 106 122 107
3 82 197 8
3 67 58 60
3 210 36 181
3 208 203 206
3 166 164 162
3 100 104 102
3 79 70 72
3 106 108 110
3 132 144 40
3 154 158 156
3 192 194 222
3 193 195 191
3 147 151 149
3 22 20 140
3 115 113 180
3 125 123 185
