ply
format ascii 1.0
comment Created by Blender 2.79 (sub 0) - www.blender.org, source file: ''
element vertex 224
property float x
property float y
property float z
property float nx
property float ny
property float nz
property float s
property float t
element face 338
property list uchar uint vertex_indices
end_header
27.325134 6.145539 21.210217 0.100436 -0.014191 0.994812 0.178400 0.672000
24.278336 -11.018309 21.111364 0.769494 -0.425794 0.475967 0.215100 0.602300
27.323029 -8.711123 14.362118 -0.002014 -0.784570 0.619983 0.174800 0.622500
24.677231 8.119746 26.432346 0.651326 0.148106 0.744194 0.227800 0.639900
27.323929 19.427975 12.880075 -0.109989 0.847377 0.519425 0.178400 0.714700
22.999634 21.254662 19.829180 0.573656 0.589404 0.568743 0.228900 0.675200
21.023727 27.256752 12.111501 0.470504 0.843959 0.257515 0.246400 0.716600
-4.207275 32.003902 12.433214 0.046541 0.982665 0.179296 0.373000 0.713500
-4.994476 33.765926 -3.725376 -0.015748 0.997955 -0.061495 0.379600 0.803300
-25.235764 29.382610 -6.033620 -0.559679 0.808008 -0.183966 0.514200 0.804100
-22.500870 23.868834 -21.114243 -0.568834 0.676321 -0.467940 0.504900 0.903400
-32.571472 9.572963 -17.696426 -0.678121 0.118381 -0.725333 0.587600 0.887800
-16.002075 18.968714 -20.579407 0.965178 -0.080538 0.248787 0.616200 0.897600
-33.375366 -3.377460 -16.080208 -0.712790 -0.324351 -0.621845 0.616400 0.882300
-18.086472 -4.299706 -19.432869 0.181158 -0.077334 -0.980377 0.753100 0.896700
-21.905869 -15.284924 -14.839463 -0.267037 -0.784722 -0.559313 0.754600 0.880400
-8.104767 -6.363019 -17.667099 0.224433 0.246498 -0.942778 0.847800 0.891500
-7.568573 -15.340215 -13.995177 0.366100 -0.802881 -0.470473 0.849100 0.876100
-0.086868 -6.927433 -12.909751 0.860256 -0.159917 -0.484085 0.889700 0.866500
-7.526978 -14.889332 -4.679395 0.379284 -0.774041 0.506912 0.849400 0.830000
-0.045776 -6.560129 -6.123177 0.860103 -0.100558 0.500076 0.890000 0.834600
-8.041779 -6.788986 -1.231022 0.214209 0.244179 0.945769 0.848100 0.811300
-0.730865 -0.057341 -9.803931 0.565203 0.824793 -0.014466 0.980200 0.855800
-15.624573 25.439987 26.830376 -0.232398 0.599628 0.765770 0.482500 0.647300
-21.062378 -0.430982 29.684414 0.105075 -0.172002 0.979461 0.612700 0.626400
-7.795975 13.877438 30.279211 -0.093844 0.029450 0.995148 0.466000 0.617500
-28.751877 12.853999 26.492579 -0.583575 0.300241 0.754479 0.574500 0.651700
-24.061066 30.878847 12.188755 -0.483474 0.853877 0.192602 0.516200 0.719600
-34.201569 15.197881 14.020350 -0.872555 0.333842 -0.356548 0.579600 0.708000
-24.221878 -3.241835 9.514802 -0.079836 -0.161107 -0.983673 0.619900 0.715600
-36.999878 -0.725947 15.396107 -0.936186 -0.198340 -0.290078 0.613400 0.701800
-24.508972 -15.120983 15.247393 -0.376965 -0.833247 -0.404431 0.733200 0.697800
-24.268768 -13.527490 24.373808 -0.368572 -0.731132 0.574053 0.733100 0.655200
-4.683365 -15.248790 23.208385 0.392743 -0.800714 0.452284 0.829300 0.657600
-7.449966 -5.330927 28.339930 0.319895 0.179479 0.930265 0.829700 0.628800
0.634933 -8.361838 22.486801 0.906095 -0.067660 0.417554 0.878800 0.661300
-3.125870 -0.281410 18.763361 0.675497 0.735405 0.053499 0.963000 0.676500
0.712723 -7.604934 14.786521 0.898099 0.004669 -0.439711 0.881000 0.691700
-7.394272 -3.517862 10.320565 0.230506 0.313273 -0.921232 0.829600 0.713500
-4.447266 -14.598367 13.298047 0.384045 -0.713889 -0.585528 0.829200 0.697700
29.973427 3.506007 -28.905722 -0.476730 -0.022462 -0.878750 0.157500 0.952900
29.973831 -8.495765 -24.557693 -0.474105 -0.505295 -0.721030 0.175000 0.985900
27.047333 -1.536376 -23.532568 -0.149663 -0.325846 -0.933470 0.180800 0.924400
37.514427 -8.496154 -24.559275 0.600177 -0.447523 -0.662923 0.091700 0.985900
37.514030 3.505619 -28.907301 0.556505 -0.052278 -0.829157 0.099700 0.952900
39.470230 6.693083 -22.150471 0.986694 0.018311 -0.161534 0.082300 0.914200
37.515228 15.907628 -25.844627 0.582995 0.387677 -0.713981 0.099700 0.932100
39.474930 24.112307 -3.812737 0.980071 0.198218 -0.012116 0.082300 0.806600
37.517426 25.295639 -17.754654 0.584338 0.673910 -0.452010 0.099700 0.884200
37.520432 29.294359 -4.085163 0.533036 0.844905 -0.044527 0.099700 0.806600
29.979828 29.294733 -4.083580 -0.420820 0.906766 -0.025239 0.157500 0.806600
29.982727 26.753500 9.920373 -0.509964 0.792566 0.334239 0.157500 0.729000
29.984627 18.350208 20.527086 -0.480209 0.511063 0.712851 0.158100 0.678200
29.985031 6.338546 24.875639 -0.437422 0.028871 0.898770 0.157500 0.651400
29.983826 -6.053574 21.812439 -0.501816 -0.405805 0.763848 0.143100 0.601100
-13.316071 -15.487992 -26.425560 -0.015595 -0.875729 -0.482498 0.679300 0.969500
-3.156067 -3.802214 -29.030313 0.269692 0.164464 -0.948759 0.764600 0.975600
0.287323 -9.153689 -25.559917 0.729789 -0.572619 -0.373455 0.764700 0.964400
-13.614273 -9.855674 -30.219501 0.051637 -0.367809 -0.928434 0.679100 0.982100
-26.630875 -4.164006 -27.426424 -0.723533 -0.362285 -0.587542 0.590500 0.971400
-16.849075 -1.749111 -33.070007 0.029786 -0.223701 -0.974181 0.590400 0.984900
-25.737778 6.084035 -28.661924 -0.727409 0.131199 -0.673513 0.565600 0.969700
-16.440964 20.259502 -31.725502 -0.321726 0.574877 -0.752312 0.481800 0.963800
0.624527 20.887081 -32.249100 0.084231 0.492325 -0.866298 0.363400 0.959200
-4.700272 30.751118 -19.274822 -0.053194 0.917142 -0.394940 0.377100 0.891100
21.662231 24.868782 -17.569805 0.395459 0.851131 -0.345195 0.237700 0.878000
20.871628 27.457937 -3.498085 0.278787 0.960265 -0.011231 0.247700 0.803900
27.320633 26.064741 -3.912952 -0.347575 0.936033 0.054933 0.178400 0.806600
-9.036972 5.403214 -17.809675 -0.435011 -0.806269 0.400861 0.587000 0.905300
-18.204773 0.394850 -16.699436 0.092227 0.091830 0.991485 0.590000 0.913300
-29.466476 6.340610 -19.643114 -0.873714 0.213507 0.436995 0.571100 0.922700
-29.655273 -4.857096 -18.894352 -0.838130 -0.346477 0.421247 0.590600 0.928400
-14.772873 -16.762699 -18.369802 -0.109256 -0.890286 0.442061 0.679300 0.927600
-0.355972 -8.084324 -18.084881 0.659322 -0.460646 0.594165 0.764700 0.927900
1.577621 -1.407078 -25.054094 0.851985 0.330790 -0.405774 0.802200 0.957300
-3.670364 3.506643 -22.877483 0.168004 0.985748 -0.003937 0.859200 0.942700
9.877136 -5.327594 -1.768872 -0.658345 -0.751732 -0.037751 0.371300 0.307300
19.818527 -13.204988 -1.356129 -0.466506 -0.860195 -0.205878 0.298300 0.307300
-6.101669 -4.594316 23.084618 -0.639882 -0.708213 0.298196 0.488300 0.174200
8.969528 -11.204360 -22.423409 -0.360118 -0.849147 -0.386303 0.399700 0.432400
-9.036972 5.403214 -17.809675 -0.435011 -0.806269 0.400861 0.558700 0.396400
-5.982864 6.225122 -26.726168 0.080844 -0.821986 -0.563738 0.551400 0.449000
-18.204773 0.394850 -16.699436 0.092227 0.091830 0.991485 0.637100 0.404400
-8.512772 0.267866 -24.573784 0.835810 -0.504379 0.216681 0.637100 0.449600
-13.650772 -7.476597 -15.610166 0.035066 0.014405 0.999268 0.727800 0.407300
-11.648071 0.593425 -24.808863 -0.927000 0.307443 -0.214789 0.727700 0.446600
-4.095871 -2.369142 -16.159445 0.056887 0.359813 0.931272 0.807700 0.409600
-7.589874 3.116732 -24.247141 -0.301401 0.936491 -0.179174 0.807700 0.444300
-3.670364 3.506643 -22.877483 0.168004 0.985748 -0.003937 0.833700 0.439400
-3.156067 -3.802214 -29.030313 0.269692 0.164464 -0.948759 0.807700 0.473300
-6.688675 14.803276 -34.768631 0.547868 0.494400 -0.674795 0.475300 0.981000
8.958023 2.756897 -32.955177 0.062319 -0.248421 -0.966613 0.356800 0.978000
23.286331 -1.936864 -26.799402 0.436262 -0.300302 -0.848201 0.226200 0.942700
23.197830 18.792080 -26.927416 0.524827 0.421003 -0.739769 0.219200 0.933100
27.316925 18.482899 -19.966955 -0.080752 0.698111 -0.711386 0.178400 0.898500
29.974632 15.908021 -25.842945 -0.467940 0.380657 -0.797540 0.157500 0.932100
8.958023 2.756897 -32.955177 0.062319 -0.248421 -0.966613 0.399700 0.489800
-6.688675 14.803276 -34.768631 0.547868 0.494400 -0.674795 0.520300 0.493000
23.286331 -1.936864 -26.799402 0.436262 -0.300302 -0.848201 0.266800 0.452900
21.303131 -14.351935 -18.415192 0.112094 -0.883480 -0.454817 0.284900 0.407600
27.316833 -14.091304 -13.839970 -0.323893 -0.846644 -0.422193 0.218200 0.380700
27.319229 -16.292549 -1.681994 -0.506516 -0.861995 -0.019166 0.218200 0.310200
29.978226 -19.522692 -1.512458 -0.404706 -0.913144 0.048250 0.196900 0.310200
29.981331 -15.524508 12.147147 -0.465407 -0.766717 0.442183 0.196900 0.228800
37.521927 -15.524887 12.145466 0.598193 -0.684286 0.416944 0.138100 0.228800
37.524429 -6.053856 21.810850 0.597247 -0.407117 0.691031 0.138100 0.169300
39.478828 8.798230 17.818933 0.986999 0.034608 0.156804 0.120400 0.188100
16.867432 -15.775831 25.288145 0.550737 -0.508347 0.661977 0.290500 0.581800
13.532333 -21.203487 20.328747 0.397839 -0.916715 -0.036470 0.275100 0.566100
3.362823 -27.640114 23.561190 0.408948 -0.906552 0.104343 0.361100 0.536800
-3.570374 -22.904928 32.722313 -0.075808 -0.473190 0.877682 0.384400 0.547300
-7.503265 -29.882725 16.438560 0.021302 -0.991516 0.128086 0.471600 0.513700
-13.406769 -27.166052 15.949038 -0.754845 -0.605426 0.252205 0.483700 0.531500
-8.061478 -31.145658 4.344006 0.116703 -0.889737 -0.441267 0.559600 0.501000
-13.974777 -26.661770 4.208456 -0.741020 -0.454543 -0.494217 0.564400 0.518900
-7.387268 -22.195667 0.534127 0.127110 -0.072512 -0.989227 0.616500 0.508500
-14.589676 -17.685965 3.715925 -0.693533 0.403577 -0.596728 0.583400 0.549000
-5.263168 -14.859472 2.680856 0.362835 0.592181 -0.719474 0.597600 0.563500
-3.664276 -11.445167 9.028370 0.358989 0.835994 -0.414960 0.538300 0.588100
-7.204971 9.625621 11.237893 -0.101382 -0.946623 -0.305887 0.617100 0.720600
-28.010666 2.849974 14.818383 -0.084353 -0.033509 0.995849 0.622600 0.725100
-35.601471 14.007758 9.910349 -0.834590 0.316507 0.450850 0.601400 0.730600
-38.271164 -2.765069 9.691425 -0.856960 -0.308115 0.413068 0.631100 0.734400
-34.572266 13.481566 -2.531409 -0.781579 0.216071 -0.585162 0.599600 0.795700
-36.537170 -3.065375 -0.725522 -0.746757 -0.348552 -0.566393 0.629800 0.792700
-27.965073 2.375259 -4.193313 -0.041780 -0.132847 -0.990234 0.628300 0.797500
-19.918274 -18.913963 0.960102 -0.172216 -0.873592 -0.455123 0.778300 0.789600
-17.736069 -8.730153 -3.948415 0.023988 -0.113010 -0.993286 0.779100 0.800800
-4.995972 -2.307655 -3.295917 0.208045 0.278024 -0.937742 0.881500 0.805800
-7.795975 13.877438 30.279211 -0.093844 0.029450 0.995148 0.572900 0.127000
0.974930 5.193894 32.175388 -0.209174 0.103641 0.972350 0.529700 0.140700
-12.957870 4.572979 20.755243 0.276498 -0.955504 0.102603 0.555500 0.170700
-21.062378 -0.430982 29.684414 0.105075 -0.172002 0.979461 0.662300 0.111900
-14.347168 1.556763 19.891069 -0.053194 -0.751549 -0.657521 0.663300 0.158000
-18.869873 -2.846591 28.907013 0.156835 0.062319 0.985626 0.784100 0.111100
-14.565475 3.911811 19.518663 -0.512436 0.854640 0.083193 0.784000 0.160900
-7.449966 -5.330927 28.339930 0.319895 0.179479 0.930265 0.882600 0.116000
-10.091064 4.277661 17.600723 0.126316 0.975677 -0.179052 0.880200 0.168500
-3.125870 -0.281410 18.763361 0.675497 0.735405 0.053499 0.920700 0.161700
-7.394272 -3.517862 10.320565 0.230506 0.313273 -0.921232 0.882500 0.204800
-19.936066 -18.451540 10.682542 -0.169988 -0.843013 0.510269 0.778300 0.738900
-4.932770 -1.661366 14.067349 0.208045 0.358440 0.910062 0.881700 0.720000
-17.741867 -7.802731 15.357337 0.040529 -0.016175 0.999023 0.777400 0.720800
-2.503067 -12.288861 10.741705 0.520310 -0.646352 0.558061 0.884300 0.739000
-2.495270 -12.761232 0.831028 0.531205 -0.685568 -0.497757 0.884300 0.788300
2.416534 -5.022029 1.386110 0.890896 -0.031983 -0.453047 0.932600 0.773700
-1.045074 3.432442 5.144254 0.629994 0.776299 -0.020600 0.980700 0.766100
2.537323 -4.839808 9.563369 0.897122 -0.011200 0.441572 0.933000 0.752600
-0.288467 -9.191139 19.381084 -0.966491 0.066347 0.247902 0.510100 0.135600
1.942230 -14.116297 12.645340 -0.677419 -0.258370 -0.688711 0.406900 0.175800
20.247131 -19.103119 9.088760 0.236915 -0.965148 -0.110874 0.294400 0.247900
27.323029 -8.711123 14.362118 -0.002014 -0.784570 0.619983 0.218200 0.213800
29.983826 -6.053574 21.812439 -0.501816 -0.405805 0.763848 0.196900 0.169300
27.047333 -1.536376 -23.532568 -0.149663 -0.325846 -0.933470 0.220600 0.433700
29.975327 -16.982071 -15.526294 -0.418104 -0.803400 -0.423872 0.196900 0.391500
29.973831 -8.495765 -24.557693 -0.474105 -0.505295 -0.721030 0.196900 0.441800
37.516029 -16.982359 -15.527981 0.588610 -0.716086 -0.375103 0.138100 0.391500
37.514427 -8.496154 -24.559275 0.600177 -0.447523 -0.662923 0.138100 0.441800
39.473633 -13.012998 -2.224952 0.987335 -0.158422 0.004608 0.120400 0.312300
39.470230 6.693083 -22.150471 0.986694 0.018311 -0.161534 0.120400 0.423000
8.545334 -4.893892 34.195339 0.218665 -0.127476 0.967406 0.351100 0.612400
0.974930 5.193894 32.175388 -0.209174 0.103641 0.972350 0.377100 0.621000
-11.120468 -11.971661 32.793926 -0.702506 0.247566 0.667196 0.416600 0.589700
-0.288467 -9.191139 19.381084 -0.966491 0.066347 0.247902 0.448400 0.606300
-16.482864 -16.552950 12.211328 -0.907193 0.419874 -0.025971 0.512600 0.566800
-7.204971 9.625621 11.237893 -0.101382 -0.946623 -0.305887 0.558400 0.213700
-7.436066 10.018217 -2.623149 -0.425184 -0.894955 -0.135105 0.553100 0.309000
-11.525467 12.486843 -10.651075 -0.083377 -0.922758 0.376171 0.665000 0.348500
-16.002075 18.968714 -20.579407 0.965178 -0.080538 0.248787 0.663800 0.399400
-18.086472 -4.299706 -19.432869 0.181158 -0.077334 -0.980377 0.803000 0.400500
8.316925 14.200536 29.255264 0.194464 0.288186 0.937590 0.348800 0.631500
2.105530 28.316082 24.856789 0.184912 0.766198 0.615375 0.357700 0.652300
29.976730 25.296028 -17.753075 -0.456801 0.754479 -0.471175 0.157500 0.884200
-35.952774 -2.100338 -5.605149 -0.847468 -0.248817 0.468856 0.616500 0.823600
-35.565277 11.042488 -6.019336 -0.859096 0.238380 0.452834 0.593600 0.819200
-18.200775 20.256456 -2.355242 -0.056612 0.090182 0.994293 0.624000 0.807900
-9.310867 21.611439 -2.657057 0.904660 0.421888 0.059786 0.618700 0.803700
-2.365967 -23.888489 4.805057 0.877041 -0.243171 -0.414258 0.612900 0.027800
-8.061478 -31.145658 4.344006 0.116703 -0.889737 -0.441267 0.587800 0.002500
-7.387268 -22.195667 0.534127 0.127110 -0.072512 -0.989227 0.663300 0.009700
-7.503265 -29.882725 16.438560 0.021302 -0.991516 0.128086 0.506200 0.031600
-1.153976 -22.910465 11.678371 0.839961 -0.365093 -0.401379 0.553300 0.065100
3.362823 -27.640114 23.561190 0.408948 -0.906552 0.104343 0.409100 0.071500
1.942429 -21.214102 15.026139 0.861385 -0.153203 -0.484268 0.466500 0.109500
-5.263168 -14.859472 2.680856 0.362835 0.592181 -0.719474 0.672400 0.062300
-3.664276 -11.445167 9.028370 0.358989 0.835994 -0.414960 0.607100 0.100700
39.478828 8.798230 17.818933 0.986999 0.034608 0.156804 0.082300 0.690100
37.525230 18.349926 20.525501 0.576403 0.489578 0.654225 0.100300 0.678200
37.523331 26.753218 9.918786 0.587481 0.731132 0.346812 0.099700 0.729000
-18.338974 1.812429 4.746462 0.354472 0.050752 0.933683 0.681300 0.257300
-27.965073 2.375259 -4.193313 -0.041780 -0.132847 -0.990234 0.678100 0.301300
-15.402069 2.911649 5.055572 -0.263466 0.963775 0.041414 0.828000 0.258500
-17.736069 -8.730153 -3.948415 0.023988 -0.113010 -0.993286 0.827600 0.303200
-4.995972 -2.307655 -3.295917 0.208045 0.278024 -0.937742 0.933800 0.301000
-12.557968 -1.161900 -10.597631 -0.829737 0.554094 -0.066836 0.897500 0.354600
-0.730865 -0.057341 -9.803931 0.565203 0.824793 -0.014466 0.940700 0.350800
-8.104767 -6.363019 -17.667099 0.224433 0.246498 -0.942778 0.899500 0.393900
-8.041779 -6.788986 -1.231022 0.214209 0.244179 0.945769 0.899800 0.310000
-11.049866 -4.121859 -10.203620 -0.844966 0.533769 0.033296 0.802100 0.353600
-19.193771 -3.127247 -1.133328 0.113407 0.054781 0.992035 0.803500 0.309900
-22.767075 -16.647078 -4.861731 -0.323679 -0.822443 0.467696 0.754800 0.826700
-19.193771 -3.127247 -1.133328 0.113407 0.054781 0.992035 0.753500 0.806400
37.518829 -19.523081 -1.514040 0.558611 -0.828181 0.044649 0.138100 0.310200
-18.869873 -2.846591 28.907013 0.156835 0.062319 0.985626 0.732800 0.626200
-32.254974 -1.737377 26.188793 -0.691244 -0.201056 0.694021 0.612700 0.653600
37.525627 6.338264 24.874050 0.556871 0.035066 0.829829 0.099700 0.651400
37.524429 -6.053856 21.810850 0.597247 -0.407117 0.691031 0.098000 0.613200
1.072830 -0.546903 -19.286907 0.764061 0.428663 0.482070 0.802600 0.930100
-4.095871 -2.369142 -16.159445 0.056887 0.359813 0.931272 0.764500 0.914800
-7.672867 6.343168 4.565180 -0.046571 0.995636 -0.080508 0.925700 0.258100
-1.045074 3.432442 5.144254 0.629994 0.776299 -0.020600 0.971100 0.255900
-4.932770 -1.661366 14.067349 0.208045 0.358440 0.910062 0.933900 0.211100
-13.650772 -7.476597 -15.610166 0.035066 0.014405 0.999268 0.679100 0.911700
-16.849075 -1.749111 -33.070007 0.029786 -0.223701 -0.974181 0.637500 0.485600
-18.963272 -5.044829 10.184935 0.088534 0.094638 -0.991546 0.783900 0.206100
-24.221878 -3.241835 9.514802 -0.079836 -0.161107 -0.983673 0.663000 0.207000
13.532333 -21.203487 20.328747 0.397839 -0.916715 -0.036470 0.334200 0.111100
-28.010666 2.849974 14.818383 -0.084353 -0.033509 0.995849 0.679900 0.212900
-17.741867 -7.802731 15.357337 0.040529 -0.016175 0.999023 0.827900 0.214200
-9.310867 21.611439 -2.657057 0.904660 0.421888 0.059786 0.617100 0.303700
-18.200775 20.256456 -2.355242 -0.056612 0.090182 0.994293 0.663800 0.306600
24.278336 -11.018309 21.111364 0.769494 -0.425794 0.475967 0.257900 0.174900
-18.963272 -5.044829 10.184935 0.088534 0.094638 -0.991546 0.732700 0.716700
-13.614273 -9.855674 -30.219501 0.051637 -0.367809 -0.928434 0.727800 0.481100
3 0 1 2
3 1 0 3
3 4 3 0
3 3 4 5
3 6 5 4
3 5 6 7
3 8 7 6
3 7 8 9
3 10 9 8
3 9 10 11
3 12 11 10
3 11 12 13
3 14 13 12
3 13 14 15
3 16 15 14
3 15 16 17
3 18 17 16
3 17 18 19
3 20 19 18
3 19 20 21
3 22 21 20
3 23 24 25
3 24 23 26
3 27 26 23
3 26 27 28
3 29 28 27
3 28 29 30
3 31 30 29
3 30 31 32
3 33 32 31
3 32 33 34
3 35 34 33
3 34 35 36
3 37 36 35
3 36 37 38
3 39 38 37
3 38 39 31
3 33 31 39
3 40 41 42
3 41 40 43
3 44 43 40
3 43 44 45
3 46 45 44
3 45 46 47
3 48 47 46
3 47 48 49
3 50 49 48
3 49 50 51
3 4 51 50
3 51 4 52
3 0 52 4
3 52 0 53
3 2 53 0
3 53 2 54
3 55 56 57
3 56 55 58
3 59 58 55
3 58 59 60
3 61 60 59
3 60 61 62
3 10 62 61
3 62 10 63
3 64 63 10
3 63 64 65
3 66 65 64
3 65 66 67
3 4 67 66
3 67 4 50
3 10 68 12
3 68 10 69
3 70 69 10
3 69 70 71
3 59 71 70
3 71 59 72
3 55 72 59
3 72 55 73
3 57 73 55
3 73 57 74
3 56 74 57
3 74 56 75
3 76 77 78
3 77 76 79
3 80 79 76
3 79 80 81
3 82 81 80
3 81 82 83
3 84 83 82
3 83 84 85
3 86 85 84
3 85 86 87
3 88 87 86
3 87 88 89
3 62 90 60
3 90 62 91
3 63 91 62
3 91 63 92
3 93 92 63
3 92 93 42
3 94 42 93
3 42 94 40
3 95 40 94
3 40 95 44
3 46 44 95
3 96 81 97
3 81 96 79
3 98 79 96
3 79 98 99
3 100 99 98
3 99 100 101
3 102 101 100
3 101 102 103
3 104 103 102
3 103 104 105
3 106 105 104
3 107 108 1
3 108 107 109
3 110 109 107
3 109 110 111
3 112 111 110
3 111 112 113
3 114 113 112
3 113 114 115
3 116 115 114
3 115 116 117
3 118 117 116
3 27 119 29
3 119 27 120
3 121 120 27
3 120 121 122
3 123 122 121
3 122 123 124
3 125 124 123
3 124 125 126
3 127 126 125
3 126 127 128
3 129 78 130
3 78 129 131
3 132 131 129
3 131 132 133
3 134 133 132
3 133 134 135
3 136 135 134
3 135 136 137
3 138 137 136
3 137 138 139
3 140 141 142
3 141 140 143
3 126 143 140
3 143 126 144
3 128 144 126
3 144 128 145
3 146 145 128
3 145 146 147
3 141 147 146
3 147 141 143
3 78 148 130
3 148 78 149
3 77 149 78
3 149 77 150
3 101 150 77
3 150 101 151
3 103 151 101
3 151 103 152
3 105 152 103
3 153 100 98
3 100 153 154
3 155 154 153
3 154 155 156
3 157 156 155
3 156 157 158
3 159 158 157
3 158 159 106
3 3 107 1
3 107 3 160
3 161 160 3
3 160 161 162
3 163 162 161
3 162 163 164
3 118 164 163
3 164 118 116
3 165 78 131
3 78 165 76
3 166 76 165
3 76 166 80
3 167 80 166
3 80 167 168
3 169 168 167
3 170 25 161
3 25 170 23
3 171 23 170
3 23 171 27
3 7 27 171
3 27 7 9
3 65 93 63
3 93 65 94
3 67 94 65
3 94 67 172
3 50 172 67
3 172 50 48
3 173 11 13
3 11 173 174
3 175 174 173
3 174 175 9
3 176 9 175
3 9 176 125
3 177 178 179
3 178 177 180
3 181 180 177
3 180 181 182
3 183 182 181
3 182 183 149
3 184 177 179
3 177 184 181
3 185 181 184
3 181 185 183
3 148 183 185
3 183 148 149
3 47 186 45
3 186 47 187
3 188 187 47
3 187 188 52
3 51 52 188
3 189 166 165
3 166 189 190
3 191 190 189
3 190 191 192
3 193 192 191
3 194 195 196
3 195 194 197
3 198 197 194
3 197 198 199
3 167 199 198
3 19 15 17
3 15 19 200
3 21 200 19
3 200 21 201
3 200 13 15
3 13 200 173
3 201 173 200
3 173 201 175
3 154 102 100
3 102 154 202
3 156 202 154
3 202 156 158
3 66 6 4
3 6 66 8
3 64 8 66
3 8 64 10
3 171 5 7
3 5 171 3
3 170 3 171
3 3 170 161
3 203 32 34
3 32 203 204
3 24 204 203
3 204 24 26
3 53 187 52
3 187 53 205
3 54 205 53
3 205 54 206
3 122 142 120
3 142 122 140
3 124 140 122
3 140 124 126
3 123 9 125
3 9 123 27
3 121 27 123
3 207 208 73
3 208 207 75
3 74 75 207
3 172 95 94
3 95 172 46
3 48 46 172
3 198 169 167
3 169 198 196
3 194 196 198
3 209 210 193
3 210 209 211
3 191 211 209
3 71 212 69
3 212 71 72
3 72 208 212
3 208 72 73
3 205 186 187
3 186 205 206
3 213 81 83
3 81 213 97
3 214 133 135
3 133 214 215
3 77 99 101
3 99 77 79
3 139 135 137
3 135 139 214
3 202 104 102
3 104 202 158
3 216 149 150
3 149 216 182
3 217 189 165
3 189 217 218
3 219 166 190
3 166 219 220
3 220 167 166
3 167 220 199
3 218 191 189
3 191 218 211
3 221 150 151
3 150 221 216
3 215 131 133
3 131 215 165
3 107 162 110
3 162 107 160
3 222 31 29
3 31 222 38
3 89 85 87
3 85 89 223
3 28 204 26
3 204 28 30
3 37 33 39
3 33 37 35
3 223 83 85
3 83 223 213
3 112 162 164
3 162 112 110
3 145 143 144
3 143 145 147
3 114 164 116
3 164 114 112
3 49 188 47
3 188 49 51
3 22 18 16
3 18 22 20
3 61 70 10
3 70 61 59
3 9 11 174
3 30 32 204
3 73 74 207
3 106 104 158
3 193 191 209
